<?xml version="1.0" encoding="UTF-8"?>
<svg id="Layer_2" data-name="Layer 2" xmlns="http://www.w3.org/2000/svg" viewBox="0 0 289.98 294.84">
  <defs>
    <style>
      .cls-1 {
        stroke: #fbc73b;
        stroke-width: 19px;
      }

      .cls-1, .cls-2 {
        fill: none;
        stroke-linecap: round;
        stroke-miterlimit: 10;
      }

      .cls-2 {
        stroke: #083160;
        stroke-width: 12px;
      }
    </style>
  </defs>
  <g id="Layer_1-2" data-name="Layer 1">
    <g>
      <path class="cls-1" d="M59.04,146.88s-19.07-65.05,43.57-113.78c8.27-6.44,17.51-11.53,27.39-15.04,31.73-11.29,105.56-25.72,150.48,60.78"/>
      <path class="cls-2" d="M12.49,236.78c-10.81,15.03-7.3,32.41,4.5,43.5,8.98,8.44,22.73,10.83,35.24,6.29.42-.15.63-.63.48-1.05l-25.02-66.22c-.12-.31-.03-.67.23-.89l19.67-16.86c.43-.37,1.1-.18,1.28.35l23.31,69.92c.16.49.74.7,1.18.43l18.12-11.15c.31-.19.45-.57.34-.92l-23.68-76.96c-.09-.28-.01-.59.2-.8l21.44-21.44c3.11-3.11,4.41-7.6,3.44-11.89-2.93-12.95-6.36-40.56,9.51-67.38,3.25-5.5,14.83-24.48,38-34.28,33.36-14.11,79.34-4.38,104.25,29.79,21.33,29.27,22.26,69.67,2.29,100.29-19.87,30.47-56.82,45.72-92.81,38.57-3.1-.62-6.31.24-8.76,2.22l-34.02,27.48c-.44.36-1.1.15-1.27-.39l-11.49-37.33c-.1-.32.02-.68.29-.88l47.3-34.78c1.96-1.44,4.6-1.52,6.64-.21l15.16,9.75c1.57,1.01,3.47,1.38,5.31,1.04l17.1-3.21c2.62-.49,17.47-4.06,19.21-6.08l9.91-39.09c1-1.15.26-2.95-1.26-3.07l-42.1,16.81c-2.47-.19-12.93-12.74-13.18-15.21l26.74-38.38c.55-1.01-.23-2.25-1.37-2.17-.02,0-.03,0-.03,0l-47.64,6.08c-1.11,1.16-11.74,21.77-12.16,23.32l-4.05,12.16c-.54,1.98-.83,1.84.33,3.53l11.82,17.17"/>
    </g>
  </g>
</svg>